<?xml version="1.0" encoding="utf-8"?>
<!-- Generator: Adobe Illustrator 26.3.1, SVG Export Plug-In . SVG Version: 6.00 Build 0)  -->
<svg version="1.1" id="Layer_1" xmlns="http://www.w3.org/2000/svg" xmlns:xlink="http://www.w3.org/1999/xlink" x="0px" y="0px"
	 viewBox="0 0 1270.2 573.4" style="enable-background:new 0 0 1270.2 573.4;" xml:space="preserve">
<g>
	<path d="M1262.5,196.3c-0.1-31.3-22.7-53.3-53.8-53.2c-32.9,0-65.6,0-98.5,0v22.4c32.5,0,64.8,0,97.3,0c11,0,20.8,2.6,26.8,12.2
		c3,4.9,5.5,11,5.5,16.6c0.4,72.3,0.3,144.7,0.2,217c0,17-13,29.1-30.7,29.1c-79.7,0-159.3,0-239,0c-100.5,0-201,0-301.5,0
		c-82.8,0-165.7,0-248.5,0c-1.8,0-3.6,0-5.8,0c-3.8-12.6-10.3-22.2-22.3-27.5c-1.1-0.5-2.1-2.9-1.9-4.1c0.6-3,1.5-6.1,3.1-8.7
		c1-1.6,3.4-2.8,5.4-3.1c13.7-2.6,26.5-7.6,37.8-15.8c17-12.3,27.9-28.9,32.9-49.1c6.5-26.5,5.3-52.5-7.2-77.3
		c-12.4-24.4-32.4-39.1-59-45c-20.8-4.7-41.3-4-61.5,2.9c-30.5,10.5-49.3,31.9-56.6,63c-5.5,23.5-4.1,47,5,69.6
		c11.9,29.2,34.3,45.6,64.9,51.6c2.2,0.4,5.6,0.9,6.2,2.2c1.5,3.9,2,8.3,2.4,12.5c0.1,0.7-1.7,1.8-2.8,2.4c-9.8,4.8-16,12.6-18.9,23
		c-0.8,3-2.3,3.5-4.9,3.5c-4.5-0.1-9,0-13.5,0c-84.5,0-169,0-253.5,0c-5.1,0-10.3,0.1-15.4-0.5c-14-1.9-24.9-14.1-24.9-28.2
		c-0.1-72.7,0-145.3,0.1-218c0-14.3,12.4-27,26.8-28c2.5-0.2,5-0.2,7.5-0.2c54,0,108,0,162,0c34,0,68,0,102,0
		c115.6,0,231.2,0.1,346.9,0.1c0.3,0,0.5,0,0.8,0V143c-7.7,0-15.4,0-23,0c-100,0-200,0-300,0c-98.3,0-196.6,0-294.9,0
		c-26.2,0-49.7,23.1-50,49.2c-0.2,15-0.2,30-0.2,45c0,57,0,114,0,171c0,4.1,0.1,8.4,0.9,12.4c4.9,24.8,26.4,42,52.3,42
		c88.3-0.1,176.7,0,265,0c5,0,10-0.1,15,0.1c1.4,0.1,3,0.9,4,1.9c4,4.3,7,10.3,11.9,12.9c6.4,3.5,6.5,8.1,6.1,13.7
		c0,0.7,0.1,1.3,0,2c-0.4,3.5,0.6,5.9,5.1,5.5c0,2.4,0,3.9,0,5.4c0,18.3,0,36.7,0,55c0,5.5,1.2,6.5,6.6,5.4
		c6.6-1.3,12.3-8.8,12.4-16.2c0-14.8,0-29.7,0.1-44.5c0-1.5,0.4-4.3,1.1-4.4c6.5-1.3,4.8-6.2,4.5-10.2c-0.3-5.1,1.3-8.5,5.9-11.5
		c4.3-2.8,8.9-6.6,11-11c1.9-3.9,3.8-4.1,7-4.1c76.5,0,153,0,229.4,0c50.8,0,101.7,0,152.5,0c136.8,0,273.7,0,410.5,0
		c31,0,53.6-22,53.6-52.9C1262.6,338.6,1262.6,267.5,1262.5,196.3L1262.5,196.3z M384.3,433.9c-3,3.6-8.4,4.3-11.9,1.5
		c-4.6-3.7-4.9-8.7-1.4-13.3c4,0.2,7.5,0.4,11,0.5l0.5-1.2C387.8,426,388.3,429.1,384.3,433.9z M378.2,408.8
		c-9.7-0.4-10-0.6-11.8-9.9h21C388,406.7,385.7,409.2,378.2,408.8L378.2,408.8z M384.4,351.5c-4.5-1.4-10,0-15,0.1
		c-2.1,0-4.6,0.4-6.4-0.4c-11.8-5.6-16.5-16.4-19-28.2c-1.5-6.9-1.9-14.1-2.4-17.8c0.4-14.9,1.8-26,7.2-36.3
		c5.8-11.1,14.7-17.4,27.4-17.6c12.7-0.3,22.6,5,29.1,15.9c7.7,12.9,9.2,27.2,8.2,41.9c-0.8,12-2.6,23.9-10.5,33.6
		c-2.4,2.9-5.4,5.4-8.5,7.6C391.5,352.3,388.5,352.8,384.4,351.5L384.4,351.5z"/>
	<path d="M254.4,393.9c-16.8,0-33.1,0-49.4,0c-6.7,0-10.1-3.4-10.1-10.2c0-20,0-40,0-60c0-1.8,0-3.6,0-5.9c-4.8,0-9.1,0-13.4,0
		c-12.3,0-24.7,0.2-37-0.1c-5-0.1-6.6,1.1-6.6,6.3c0.3,21.2,0.1,42.3,0.1,63.5c0,2,0,3.9,0,6.5c-3,0-5.4,0-7.9,0
		c-14.5,0-29-0.1-43.5,0c-8.4,0-8.4,0.1-8.4-8.5c0-55.6,0-111.3,0-166.9c0-2.1,0-4.3,0-6.6h59.5c0.1,1.9,0.2,3.7,0.2,5.5
		c0,17.8,0,35.7,0,53.5c0,2.5,0,4.6,3.5,4.6c17.6-0.1,35.2,0,53.3,0V212h59.6L254.4,393.9L254.4,393.9z"/>
	<path d="M868.8,393.7V211.6h147.9v42.8c-7.3,0-14.8,0-22.2,0c-20,0-40,0-60-0.1c-5.9,0-6.5,0.5-6.5,6.6c0,4.3,0,8.7,0,13
		c0,5.9,0.8,6.6,6.6,6.6c20.3,0,40.7,0,61,0c2.3,0,4.6,0,7.2,0v42.2c-5.3,0-10.4,0-15.5,0c-17.3,0-34.7,0-52,0c-6.7,0-7.2,0.5-7.2,7
		c0,5.3,0.2,10.7-0.1,16c-0.2,4.5,1.7,6.1,6.2,6.1c27-0.1,54-0.1,81-0.1c6.1,0,5.8,0,5.7,6.3c-0.2,10.5,0,21,0.1,31.5
		c0,2.9-0.3,4.6-4,4.6c-48.2-0.1-96.3,0-144.5-0.1C871.4,394,870.2,393.8,868.8,393.7L868.8,393.7z"/>
	<path d="M652.8,264.6c-6,0-11.5,0-17,0c-11.7,0-23.3-0.1-35,0.3c-4.1,0.1-6.4-1.9-7.4-5c-2.3-7.6-8.3-10-15.1-10.7
		c-6.7-0.6-13.3-1.1-19.8,2.4c-6.5,3.5-8.1,10.7-1.9,15.4c3.5,2.7,7.7,4.8,11.9,6.1c15.9,4.8,32,8.7,47.8,13.6
		c15,4.7,28.3,12.3,36,26.8c6,11.3,6.5,23.4,4,35.8c-4.7,23.5-20.5,36.4-42,43.4c-23.6,7.7-47.7,8.8-71.7,2.1
		c-25.6-7.1-43.6-22.6-50.5-49.1c-0.6-2.2-0.3-4.6-0.5-7.4h56.1c8.7,17.2,27.3,23.6,45.4,15.4c4.1-1.9,7.8-5,7.1-9.3
		c-0.6-3.8-3.2-8.8-6.3-10.2c-8.7-4-17.9-6.9-27.2-9.2c-16.8-4.2-33.8-8.1-48.7-17.2c-9.9-6-17.2-14.6-20.3-26.4
		c-4.2-15.7-2.5-30.9,5.4-44.7c6.5-11.4,17.5-18.3,29.6-22.8c24.5-9.1,49.7-8.6,74.5-2.6c11.6,2.8,22.2,9.5,30.4,18.9
		C646.1,239.7,650.6,251,652.8,264.6L652.8,264.6z"/>
	<path d="M842.6,212.1v42.2c-7.9,0-15.5,0-23.1,0c-7.5,0-15,0-22.5,0c-6.8,0-8.1,1.2-8.1,7.9c0,42,0,84,0,125.9c0,1.6,0,3.3,0,5.4
		c-1.7,0.2-3.2,0.4-4.6,0.4c-16.8,0-33.7-0.1-50.5,0.1c-3.8,0-4.9-0.9-4.8-5.1c0.3-28.8,0.2-57.6,0.2-86.5c0-14.7,0-29.3,0.2-44
		c0-3.5-1.5-4.2-4.5-4.2c-15,0.2-30,0.4-44.9,0.4c-1.4,0-3.9-1.7-3.9-2.7c-0.3-13.1-0.2-26.3-0.2-39.8L842.6,212.1L842.6,212.1z"/>
	<path d="M1050.2,393.7v-182c5.9,0,11.6,0,17.2,0c12.3,0,24.7,0.2,37-0.1c4.3-0.1,5.7,1,5.7,5.5c-0.2,42.6-0.1,85.3-0.1,127.9
		c0,6.7,0,6.6,6.5,6.6c21,0,42,0,63,0c3.9,0,7.8,0,12.1,0v42L1050.2,393.7L1050.2,393.7z"/>
	<g>
		<path d="M687.8,121.3l32.3-2c0.7,5.2,2.1,9.2,4.3,12c3.5,4.4,8.5,6.7,15,6.7c4.8,0,8.6-1.1,11.2-3.4c2.6-2.3,3.9-4.9,3.9-7.9
			s-1.2-5.4-3.7-7.6c-2.5-2.2-8.3-4.4-17.4-6.4c-14.9-3.3-25.5-7.8-31.8-13.3c-6.4-5.5-9.6-12.6-9.6-21.2c0-5.6,1.6-11,4.9-16
			s8.2-9,14.8-11.8c6.6-2.9,15.6-4.3,27-4.3c14,0,24.7,2.6,32.1,7.8c7.4,5.2,11.7,13.5,13.1,24.9l-32,1.9c-0.8-4.9-2.6-8.5-5.3-10.8
			c-2.7-2.2-6.5-3.4-11.3-3.4c-3.9,0-6.9,0.8-8.9,2.5c-2,1.7-3,3.7-3,6.1c0,1.8,0.8,3.3,2.5,4.7c1.6,1.4,5.4,2.8,11.4,4
			c14.8,3.2,25.4,6.4,31.9,9.7c6.4,3.3,11.1,7.3,14,12.2c2.9,4.8,4.4,10.3,4.4,16.2c0,7-2,13.5-5.8,19.5
			c-3.9,5.9-9.3,10.4-16.3,13.5c-7,3.1-15.8,4.6-26.4,4.6c-18.7,0-31.6-3.6-38.8-10.8C692.8,141.5,688.7,132.4,687.8,121.3
			L687.8,121.3z"/>
		<path d="M800.2,102.8c0-17.9,5-31.9,15-41.9s23.9-15,41.7-15s32.3,4.9,42.2,14.7s14.8,23.5,14.8,41.2c0,12.8-2.2,23.3-6.5,31.6
			s-10.6,14.6-18.7,19.2s-18.3,6.9-30.5,6.9s-22.6-2-30.7-5.9s-14.7-10.2-19.7-18.7S800.2,115.7,800.2,102.8L800.2,102.8z
			 M834.1,103c0,11.1,2.1,19,6.2,23.9c4.1,4.8,9.7,7.3,16.8,7.3s12.9-2.4,16.9-7.1c4-4.7,6-13.2,6-25.5c0-10.3-2.1-17.9-6.2-22.7
			c-4.2-4.8-9.8-7.2-17-7.2s-12.3,2.4-16.5,7.3C836.2,83.8,834.1,91.8,834.1,103L834.1,103z"/>
		<path d="M932.4,49.7h31.7l41.3,60.7V49.7h32v109.8h-32l-41.1-60.3v60.3h-31.9L932.4,49.7L932.4,49.7z"/>
		<path d="M1061.3,49.7h34v109.8h-34V49.7z"/>
	</g>
	<path d="M675.9,165.5c0-34.2,0-54.4,0.1-106.6c0-14.3,12.4-27,26.8-28c2.5-0.2,5-0.2,7.5-0.2c54,0,108,0,162,0c34,0,68,0,102,0
		c115.6,0-124.8,0.1-9.1,0.1c177.5,0-65,0,112.5-0.2c11,0,20.8,2.6,26.8,12.2c3,4.8,5.5,11,5.5,16.6c0.3,52,0.3,72,0.3,106h22.6
		c0.1-33.4,0-52.5-0.1-103.9c-0.1-31.3-22.7-53.3-53.8-53.2c-18.8,0-37.5,0-56.3,0c0.6,0-6,0-23.6,0c-98.3,0-196.6,0-294.9,0
		c-26.2,0-49.7,23.1-50,49.2c-0.2,15-0.2,30-0.2,45c0,34.5,0,46.3,0,62.9L675.9,165.5L675.9,165.5z"/>
</g>
</svg>
